<svg xmlns="http://www.w3.org/2000/svg" viewBox="0 0 800 500" fill="none">
  <defs>
    <linearGradient id="sidebar-bg" x1="0" y1="0" x2="0" y2="500" gradientUnits="userSpaceOnUse">
      <stop offset="0%" stop-color="#06b6d4"/>
      <stop offset="100%" stop-color="#2563eb"/>
    </linearGradient>
    <linearGradient id="header-bg" x1="200" y1="0" x2="800" y2="0" gradientUnits="userSpaceOnUse">
      <stop offset="0%" stop-color="#f8fafc"/>
      <stop offset="100%" stop-color="#f1f5f9"/>
    </linearGradient>
  </defs>
  <!-- Window frame -->
  <rect width="800" height="500" rx="12" fill="#f8fafc" stroke="#e2e8f0" stroke-width="2"/>
  <!-- Title bar -->
  <rect width="800" height="36" rx="12" fill="#f1f5f9"/>
  <rect y="12" width="800" height="24" fill="#f1f5f9"/>
  <circle cx="20" cy="18" r="6" fill="#ef4444"/>
  <circle cx="40" cy="18" r="6" fill="#f59e0b"/>
  <circle cx="60" cy="18" r="6" fill="#22c55e"/>
  <!-- Sidebar -->
  <rect y="36" width="200" height="464" fill="url(#sidebar-bg)"/>
  <rect x="166" y="449" width="34" height="51" fill="url(#sidebar-bg)"/>
  <!-- Logo in sidebar -->
  <text x="24" y="72" font-family="Arial,sans-serif" font-size="16" fill="white" font-weight="bold">DHVLingoo</text>
  <!-- Sidebar menu items -->
  <rect x="16" y="100" width="168" height="36" rx="8" fill="rgba(255,255,255,0.15)"/>
  <rect x="28" y="112" width="14" height="14" rx="3" fill="rgba(255,255,255,0.8)"/>
  <text x="50" y="123" font-family="Arial,sans-serif" font-size="12" fill="rgba(255,255,255,0.9)">Dashboard</text>
  <rect x="28" y="152" width="14" height="14" rx="3" fill="rgba(255,255,255,0.4)"/>
  <text x="50" y="163" font-family="Arial,sans-serif" font-size="12" fill="rgba(255,255,255,0.6)">My Courses</text>
  <rect x="28" y="182" width="14" height="14" rx="3" fill="rgba(255,255,255,0.4)"/>
  <text x="50" y="193" font-family="Arial,sans-serif" font-size="12" fill="rgba(255,255,255,0.6)">Flashcards</text>
  <rect x="28" y="212" width="14" height="14" rx="3" fill="rgba(255,255,255,0.4)"/>
  <text x="50" y="223" font-family="Arial,sans-serif" font-size="12" fill="rgba(255,255,255,0.6)">Progress</text>
  <rect x="28" y="242" width="14" height="14" rx="3" fill="rgba(255,255,255,0.4)"/>
  <text x="50" y="253" font-family="Arial,sans-serif" font-size="12" fill="rgba(255,255,255,0.6)">Settings</text>
  <!-- Main content area -->
  <!-- Welcome banner -->
  <rect x="216" y="52" width="568" height="100" rx="12" fill="url(#header-bg)"/>
  <text x="236" y="86" font-family="Arial,sans-serif" font-size="18" fill="#1e293b" font-weight="bold">Welcome back, Nguyen!</text>
  <text x="236" y="108" font-family="Arial,sans-serif" font-size="12" fill="#64748b">You have 3 lessons to complete today</text>
  <!-- Streak badge -->
  <rect x="660" y="72" width="108" height="48" rx="8" fill="#fef3c7" stroke="#f59e0b" stroke-width="1"/>
  <text x="690" y="96" font-family="Arial,sans-serif" font-size="20" fill="#f59e0b">🔥</text>
  <text x="712" y="96" font-family="Arial,sans-serif" font-size="14" fill="#92400e" font-weight="bold">12 days</text>
  <!-- Stat cards row -->
  <rect x="216" y="168" width="130" height="80" rx="10" fill="white" stroke="#e2e8f0" stroke-width="1"/>
  <text x="232" y="196" font-family="Arial,sans-serif" font-size="11" fill="#94a3b8">Courses</text>
  <text x="232" y="224" font-family="Arial,sans-serif" font-size="24" fill="#06b6d4" font-weight="bold">5</text>
  <rect x="362" y="168" width="130" height="80" rx="10" fill="white" stroke="#e2e8f0" stroke-width="1"/>
  <text x="378" y="196" font-family="Arial,sans-serif" font-size="11" fill="#94a3b8">Completed</text>
  <text x="378" y="224" font-family="Arial,sans-serif" font-size="24" fill="#22c55e" font-weight="bold">23</text>
  <rect x="508" y="168" width="130" height="80" rx="10" fill="white" stroke="#e2e8f0" stroke-width="1"/>
  <text x="524" y="196" font-family="Arial,sans-serif" font-size="11" fill="#94a3b8">XP Points</text>
  <text x="524" y="224" font-family="Arial,sans-serif" font-size="24" fill="#f59e0b" font-weight="bold">1,240</text>
  <rect x="654" y="168" width="130" height="80" rx="10" fill="white" stroke="#e2e8f0" stroke-width="1"/>
  <text x="670" y="196" font-family="Arial,sans-serif" font-size="11" fill="#94a3b8">Accuracy</text>
  <text x="670" y="224" font-family="Arial,sans-serif" font-size="24" fill="#3b82f6" font-weight="bold">87%</text>
  <!-- Progress chart area -->
  <rect x="216" y="264" width="350" height="220" rx="10" fill="white" stroke="#e2e8f0" stroke-width="1"/>
  <text x="236" y="292" font-family="Arial,sans-serif" font-size="13" fill="#1e293b" font-weight="bold">Weekly Progress</text>
  <!-- Bar chart -->
  <rect x="256" y="380" width="30" height="70" rx="4" fill="#a5f3fc"/>
  <rect x="302" y="350" width="30" height="100" rx="4" fill="#a5f3fc"/>
  <rect x="348" y="360" width="30" height="90" rx="4" fill="#a5f3fc"/>
  <rect x="394" y="330" width="30" height="120" rx="4" fill="#0891b2"/>
  <rect x="440" y="310" width="30" height="140" rx="4" fill="#06b6d4"/>
  <rect x="486" y="340" width="30" height="110" rx="4" fill="#06b6d4"/>
  <text x="265" y="468" font-family="Arial,sans-serif" font-size="10" fill="#94a3b8">M</text>
  <text x="312" y="468" font-family="Arial,sans-serif" font-size="10" fill="#94a3b8">T</text>
  <text x="358" y="468" font-family="Arial,sans-serif" font-size="10" fill="#94a3b8">W</text>
  <text x="403" y="468" font-family="Arial,sans-serif" font-size="10" fill="#94a3b8">T</text>
  <text x="452" y="468" font-family="Arial,sans-serif" font-size="10" fill="#94a3b8">F</text>
  <text x="496" y="468" font-family="Arial,sans-serif" font-size="10" fill="#94a3b8">S</text>
  <!-- Recent courses -->
  <rect x="582" y="264" width="202" height="220" rx="10" fill="white" stroke="#e2e8f0" stroke-width="1"/>
  <text x="598" y="292" font-family="Arial,sans-serif" font-size="13" fill="#1e293b" font-weight="bold">Recent Courses</text>
  <!-- Course item 1 -->
  <rect x="598" y="308" width="170" height="50" rx="8" fill="#f8fafc"/>
  <rect x="608" y="318" width="30" height="30" rx="6" fill="#cffafe"/>
  <text x="618" y="338" font-family="Arial,sans-serif" font-size="14" fill="#7c3aed">📖</text>
  <text x="648" y="332" font-family="Arial,sans-serif" font-size="11" fill="#1e293b" font-weight="600">IELTS Writing</text>
  <text x="648" y="346" font-family="Arial,sans-serif" font-size="9" fill="#94a3b8">65% done</text>
  <!-- Course item 2 -->
  <rect x="598" y="366" width="170" height="50" rx="8" fill="#f8fafc"/>
  <rect x="608" y="376" width="30" height="30" rx="6" fill="#ccfbf1"/>
  <text x="618" y="396" font-family="Arial,sans-serif" font-size="14" fill="#0d9488">💬</text>
  <text x="648" y="390" font-family="Arial,sans-serif" font-size="11" fill="#1e293b" font-weight="600">Speaking B2</text>
  <text x="648" y="404" font-family="Arial,sans-serif" font-size="9" fill="#94a3b8">40% done</text>
  <!-- Course item 3 -->
  <rect x="598" y="424" width="170" height="50" rx="8" fill="#f8fafc"/>
  <rect x="608" y="434" width="30" height="30" rx="6" fill="#fef3c7"/>
  <text x="618" y="454" font-family="Arial,sans-serif" font-size="14" fill="#f59e0b">🎯</text>
  <text x="648" y="448" font-family="Arial,sans-serif" font-size="11" fill="#1e293b" font-weight="600">Vocabulary</text>
  <text x="648" y="462" font-family="Arial,sans-serif" font-size="9" fill="#94a3b8">80% done</text>
</svg>
