<?xml version="1.0" standalone="no"?>
<!DOCTYPE svg PUBLIC "-//W3C//DTD SVG 20010904//EN"
 "http://www.w3.org/TR/2001/REC-SVG-20010904/DTD/svg10.dtd">
<svg version="1.0" xmlns="http://www.w3.org/2000/svg"
 width="1200.000000pt" height="740.000000pt" viewBox="0 0 1200.000000 740.000000"
 preserveAspectRatio="xMidYMid meet">

<g transform="translate(0.000000,740.000000) scale(0.100000,-0.100000)"
fill="#000000" stroke="none">
<path d="M7713 7260 c-79 -16 -151 -69 -183 -136 -19 -39 -22 -58 -18 -134 8
-168 78 -250 212 -250 34 0 81 5 105 11 36 8 45 7 55 -7 27 -36 106 -314 106
-369 0 -7 -8 -16 -19 -20 -32 -10 -113 -98 -137 -149 -13 -28 -26 -73 -29
-100 l-7 -51 -41 3 c-23 2 -62 -1 -87 -7 -38 -9 -47 -8 -55 5 -42 68 -54 80
-90 92 -54 18 -135 0 -180 -40 -65 -56 -76 -169 -26 -266 29 -57 100 -102 151
-97 14 1 31 3 39 4 7 0 11 7 7 16 -4 11 1 15 19 15 34 0 83 45 94 87 6 20 8
63 4 95 -5 52 -4 58 13 59 10 0 52 4 92 8 66 6 72 5 72 -11 0 -34 28 -86 70
-132 l42 -46 -22 -37 c-13 -21 -33 -69 -46 -108 l-22 -70 -54 -16 c-110 -33
-153 -71 -184 -161 -53 -155 4 -293 137 -328 24 -7 47 -17 52 -24 5 -8 11 -6
20 5 7 9 34 20 60 23 61 8 94 21 135 53 82 62 123 165 102 259 -23 104 -115
194 -199 194 -49 0 -49 0 1 113 41 90 45 93 104 62 36 -18 70 -26 128 -30 94
-6 134 3 200 45 l48 31 52 -40 c71 -55 134 -122 119 -128 -25 -9 -64 -46 -79
-75 -18 -36 -20 -128 -3 -190 35 -132 102 -187 248 -204 45 -5 61 -3 67 8 5 7
43 27 84 43 44 17 89 42 109 62 32 32 33 36 28 92 -9 105 -77 201 -181 253
-55 28 -70 31 -147 30 -86 0 -87 0 -120 35 -19 19 -62 57 -97 85 l-62 50 25
29 c23 28 39 72 47 127 2 12 6 23 11 22 4 0 54 0 112 0 105 0 105 0 105 -24 0
-68 55 -148 126 -181 29 -14 56 -30 59 -35 15 -24 192 17 225 52 27 30 28 154
1 213 -45 99 -151 148 -272 126 -72 -12 -114 -40 -130 -86 l-13 -35 -111 0
-112 0 -12 54 c-7 32 -28 77 -52 111 -21 31 -39 60 -39 65 0 5 32 41 72 79
l71 71 38 -35 c54 -48 105 -60 207 -47 195 26 268 102 242 251 -22 128 -68
202 -148 238 -113 53 -249 28 -337 -61 -81 -81 -96 -171 -47 -269 l28 -56 -78
-78 -77 -77 -23 21 c-37 34 -104 63 -145 63 -21 0 -63 -6 -93 -14 -37 -10 -57
-11 -61 -4 -4 6 -14 49 -24 97 -9 47 -32 126 -50 176 -19 49 -35 96 -37 103
-2 8 18 20 50 31 97 34 148 101 139 187 -17 168 -213 308 -384 274z m186 -56
c94 -47 171 -149 171 -225 0 -53 -28 -102 -73 -131 -53 -33 -196 -71 -214 -57
-28 24 -45 151 -21 165 16 10 7 21 -32 37 -34 13 -40 20 -40 45 0 40 32 67 80
67 69 0 107 -65 58 -97 l-22 -15 26 -64 c15 -35 28 -75 30 -88 2 -14 9 -26 16
-29 18 -6 15 40 -8 108 -19 56 -19 62 -4 85 22 34 11 88 -23 115 -17 13 -41
20 -70 20 -38 0 -50 -5 -79 -34 -23 -23 -34 -43 -34 -64 0 -33 34 -82 57 -82
12 0 14 -8 10 -35 -5 -32 8 -101 28 -147 17 -42 -117 -6 -162 43 -12 13 -26
35 -31 49 -18 48 -24 147 -12 204 10 47 19 62 61 100 55 50 64 53 165 55 57 1
80 -4 123 -25z m956 -368 c46 -28 75 -70 102 -149 27 -79 26 -150 -2 -193 -27
-42 -161 -94 -241 -94 l-37 0 6 91 c5 79 4 91 -11 96 -58 20 -67 69 -23 114
77 76 220 -21 156 -105 -21 -27 -19 -58 7 -111 14 -28 29 -45 40 -45 20 0 15
19 -18 77 -18 31 -18 33 -1 62 23 39 22 87 -4 122 -23 33 -86 69 -120 69 -35
0 -90 -40 -105 -76 -21 -50 -17 -74 19 -108 32 -31 32 -31 27 -109 l-5 -77
-31 17 c-74 43 -144 158 -144 239 0 92 100 190 210 204 64 7 140 -3 175 -24z
m-576 -496 c55 -35 117 -111 147 -180 29 -67 25 -153 -11 -218 -15 -29 -31
-52 -36 -52 -4 0 -21 -13 -38 -29 -17 -16 -40 -31 -51 -34 -18 -4 -20 0 -20
34 0 22 -11 67 -25 101 -30 75 -30 76 -2 106 32 34 31 101 -2 136 -31 33 -84
47 -137 37 -88 -17 -134 -69 -113 -128 9 -26 66 -73 89 -73 5 0 -2 -21 -15
-46 -19 -36 -25 -62 -25 -110 0 -35 -3 -64 -6 -64 -4 0 -33 18 -65 39 -100 67
-129 116 -129 215 0 79 13 119 58 174 100 125 268 165 381 92z m-69 -150 c29
-29 27 -90 -5 -120 -32 -30 -32 -54 1 -101 29 -42 49 -149 30 -161 -15 -11
-68 -10 -85 1 -9 6 -21 5 -31 -1 -73 -46 -75 138 -3 210 28 28 24 35 -29 52
-45 14 -78 52 -71 81 15 55 150 82 193 39z m790 -35 c67 -35 99 -87 107 -175
5 -53 3 -59 -27 -93 -40 -46 -58 -48 -52 -7 2 18 -2 40 -12 55 -10 15 -16 46
-16 84 0 78 -15 95 -83 88 -54 -5 -82 -26 -92 -69 -6 -23 -2 -33 25 -58 28
-26 30 -32 22 -62 -5 -18 -7 -39 -5 -45 6 -17 -2 -16 -35 1 -82 43 -126 160
-88 235 13 24 42 42 106 65 27 10 117 -2 150 -19z m-1448 -64 c29 -32 35 -55
18 -66 -17 -10 -11 -25 9 -25 23 0 31 -19 31 -77 0 -29 -7 -55 -21 -74 -25
-36 -39 -37 -39 -4 0 15 -7 39 -15 55 -10 20 -13 43 -9 68 8 49 -19 85 -64 85
-62 0 -91 -63 -52 -115 18 -24 20 -34 11 -56 -5 -15 -11 -38 -13 -52 -5 -40
-31 -29 -60 25 -55 99 -28 223 55 261 51 23 116 12 149 -25z m1399 -21 c14 -8
19 -22 19 -58 1 -26 7 -58 15 -72 8 -14 14 -41 15 -61 0 -33 -3 -37 -32 -43
-17 -3 -34 -2 -37 2 -3 5 -14 11 -23 15 -24 9 -23 48 2 80 l20 26 -30 18 c-41
24 -50 61 -20 85 25 21 43 22 71 8z m-1469 -62 c10 -8 18 -35 21 -68 3 -30 10
-72 15 -92 l10 -38 -44 0 c-28 0 -44 5 -45 13 -3 27 4 53 17 68 19 22 18 36
-6 49 -13 7 -20 21 -20 39 0 42 20 53 52 29z m-4 -235 c-10 -2 -26 -2 -35 0
-10 3 -2 5 17 5 19 0 27 -2 18 -5z m1323 -118 c76 -27 161 -128 183 -217 14
-59 -30 -115 -112 -143 -35 -12 -38 -12 -46 8 -5 12 -10 68 -10 125 l-1 104
-33 29 c-52 46 -121 38 -150 -18 -19 -34 -14 -53 19 -84 28 -26 30 -32 23 -75
-4 -29 -2 -60 6 -85 7 -22 10 -42 7 -46 -12 -11 -108 40 -137 74 -30 33 -56
105 -67 179 -9 65 37 137 96 150 14 3 31 7 36 9 29 10 148 3 186 -10z m-808
-88 c44 -34 79 -106 85 -174 6 -69 -29 -144 -89 -190 -24 -18 -45 -33 -48 -33
-4 0 -5 19 -3 43 2 27 -6 62 -21 100 -22 52 -23 62 -12 85 29 58 -9 117 -75
117 -101 0 -159 -119 -79 -163 26 -15 29 -21 23 -47 -4 -16 -10 -61 -13 -98
l-6 -68 -50 26 c-69 35 -88 65 -93 144 -9 140 39 227 145 264 62 21 63 21 63
2 0 -8 7 -15 15 -15 9 0 15 9 15 21 0 20 4 21 54 17 39 -3 65 -12 89 -31z
m773 -27 c1 0 7 -14 14 -30 10 -24 10 -39 0 -75 -12 -43 -9 -65 25 -147 5 -13
-2 -19 -32 -27 -52 -15 -64 0 -70 86 -4 55 -2 71 11 82 14 12 13 17 -19 52
-19 22 -35 44 -35 49 0 17 43 28 75 19 16 -5 30 -9 31 -9z m-916 -84 c5 -13
13 -27 19 -30 5 -4 7 -22 4 -41 -4 -26 2 -52 21 -96 23 -49 26 -65 18 -89 -6
-15 -7 -31 -4 -35 4 -3 0 -3 -9 0 -8 3 -32 -1 -52 -10 -21 -9 -42 -13 -47 -10
-15 9 -12 106 5 161 8 27 15 50 15 51 0 0 -16 10 -35 22 -40 23 -43 38 -14 75
27 34 66 35 79 2z"/>
<path d="M7766 7071 c-4 -7 -5 -15 -2 -18 9 -9 19 4 14 18 -4 11 -6 11 -12 0z"/>
<path d="M7730 7050 c0 -5 5 -10 10 -10 6 0 10 5 10 10 0 6 -4 10 -10 10 -5 0
-10 -4 -10 -10z"/>
<path d="M8714 6676 c-5 -14 -9 -15 -15 -5 -11 19 -22 5 -15 -19 8 -25 49 -24
54 2 5 26 -15 45 -24 22z"/>
<path d="M8145 6168 c-8 -20 12 -61 26 -53 13 9 11 28 -5 51 -13 17 -15 17
-21 2z"/>
<path d="M8090 6141 c0 -20 13 -35 23 -25 7 8 -4 44 -14 44 -5 0 -9 -9 -9 -19z"/>
<path d="M8702 5502 c4 -21 48 -24 48 -3 0 10 -10 17 -26 17 -18 2 -24 -3 -22
-14z"/>
<path d="M7795 5433 c-38 -9 -40 -23 -2 -23 26 0 37 4 37 15 0 16 -2 16 -35 8z"/>
<path d="M3155 7088 c-36 -79 -48 -234 -21 -257 21 -18 23 -9 29 99 2 47 12
105 21 130 38 98 13 122 -29 28z"/>
<path d="M2575 6986 c-9 -56 12 -186 31 -193 27 -10 32 7 18 60 -8 28 -14 75
-13 102 1 72 1 75 -15 75 -10 0 -17 -16 -21 -44z"/>
<path d="M3722 6756 c-94 -36 -202 -111 -202 -143 0 -21 19 -15 63 21 52 42
151 92 200 101 27 5 37 12 37 26 0 25 -20 24 -98 -5z"/>
<path d="M2877 6526 c-163 -68 -262 -201 -275 -367 -12 -161 108 -354 265
-426 51 -23 52 -25 45 -56 -4 -18 -7 -72 -6 -122 0 -71 5 -101 23 -140 27 -61
74 -112 111 -120 26 -6 27 -9 44 -128 18 -125 34 -457 23 -457 -4 0 -35 23
-69 50 -34 28 -65 50 -68 50 -4 0 -8 21 -9 46 -3 99 -62 181 -167 235 -66 33
-71 34 -188 34 -188 0 -323 -43 -364 -115 -9 -16 -25 -31 -35 -34 -36 -9 -11
-31 41 -36 43 -5 59 -12 94 -45 24 -22 44 -44 46 -48 3 -5 45 -29 96 -53 50
-24 111 -55 135 -69 71 -40 139 -35 240 17 l81 41 53 -36 c29 -20 66 -51 83
-69 31 -32 32 -35 37 -158 4 -69 9 -140 13 -157 6 -32 5 -33 -24 -33 -36 0
-69 -30 -80 -73 -4 -16 -2 -95 4 -176 19 -219 37 -927 31 -1165 -3 -121 -1
-220 5 -236 9 -27 44 -50 74 -50 9 0 30 6 47 14 52 23 360 59 457 53 47 -2 97
-8 112 -12 15 -4 39 -4 53 -1 49 12 66 105 26 139 -53 47 -203 59 -387 33 -54
-8 -126 -17 -159 -21 l-60 -6 3 242 c2 134 4 244 5 245 6 6 244 27 371 33 140
6 149 8 168 31 28 35 21 97 -14 123 -26 19 -33 19 -220 8 -106 -6 -221 -14
-255 -18 l-63 -6 0 79 c0 43 -7 194 -16 337 -8 143 -13 261 -11 263 9 9 254
24 398 24 142 0 157 2 177 20 33 31 30 92 -5 120 -28 22 -32 22 -310 18 l-281
-5 -6 26 c-3 14 -8 74 -12 132 -12 188 16 227 236 321 35 15 66 28 67 28 2 0
10 -17 18 -37 51 -122 208 -180 361 -134 86 26 127 65 180 174 39 81 57 106
97 131 37 25 34 42 -10 56 -21 7 -67 31 -103 55 -118 77 -126 80 -225 80 -81
0 -97 -4 -163 -35 -51 -23 -87 -49 -118 -83 -44 -49 -49 -66 -44 -140 1 -18
-4 -29 -17 -33 -69 -25 -208 -98 -241 -128 l-39 -36 -7 143 c-7 138 -20 290
-32 373 l-6 41 38 8 c78 14 123 58 155 150 19 54 16 225 -5 290 -8 27 -12 52
-8 56 4 3 42 33 84 68 88 71 108 96 134 168 16 46 17 59 6 115 -18 90 -74 198
-139 268 -41 45 -77 71 -141 103 -82 40 -89 42 -191 45 -93 2 -113 0 -164 -22z
m348 -60 c91 -47 157 -115 203 -211 84 -171 65 -255 -85 -381 -55 -45 -137
-94 -159 -94 -6 0 -5 254 2 288 4 21 14 34 33 40 72 26 97 96 51 142 -26 26
-55 25 -80 0 -19 -19 -21 -19 -27 -3 -12 34 -36 53 -67 53 -56 -1 -92 -48 -82
-110 6 -35 5 -36 -23 -32 -17 2 -34 14 -45 32 -33 56 -109 85 -157 60 -47 -26
-12 -70 83 -105 l63 -23 5 -173 c3 -96 9 -180 14 -188 16 -25 -61 -5 -115 30
-66 42 -122 108 -162 188 -29 59 -32 74 -32 156 0 78 4 98 28 150 44 95 138
181 232 212 25 8 78 12 141 10 96 -2 106 -5 179 -41z m-335 -271 c10 -12 10
-15 -3 -15 -8 0 -20 7 -27 15 -10 12 -10 15 3 15 8 0 20 -7 27 -15z m307 -47
c-3 -7 -5 -2 -5 12 0 14 2 19 5 13 2 -7 2 -19 0 -25z m-51 -5 c-10 -10 -19 5
-10 18 6 11 8 11 12 0 2 -7 1 -15 -2 -18z m-42 -37 l39 -13 -2 -159 c-1 -87
-4 -161 -7 -165 -6 -10 -134 -32 -142 -24 -4 3 -7 87 -7 185 l-1 179 41 4 c22
2 40 4 40 5 0 1 18 -4 39 -12z m163 -392 c36 -84 1 -300 -58 -355 -60 -56
-147 -45 -216 27 -45 46 -56 72 -25 59 70 -30 192 -7 192 36 0 19 -4 21 -37
14 -72 -13 -118 -14 -150 -3 -28 10 -33 17 -33 44 0 32 0 32 35 23 20 -6 57
-9 83 -7 39 3 47 6 47 23 0 18 -9 21 -74 27 -40 3 -78 11 -83 16 -7 7 -7 24
-1 49 8 37 10 38 53 40 64 4 180 25 186 35 3 4 19 6 37 4 24 -2 35 -10 44 -32z
m599 -590 c22 -9 53 -26 69 -38 17 -13 54 -35 83 -51 52 -28 52 -28 33 -49
-10 -12 -36 -52 -57 -91 -57 -106 -91 -145 -152 -173 -114 -52 -267 -7 -320
95 -15 27 -16 56 -2 48 6 -3 10 -2 10 3 0 5 35 17 78 27 108 25 143 40 136 59
-9 23 -58 20 -154 -10 -68 -21 -84 -24 -91 -13 -18 28 -9 68 23 104 74 85 246
129 344 89z m-1116 -54 c65 -26 107 -59 142 -115 30 -47 47 -115 29 -115 -5 0
-25 6 -43 14 -33 14 -60 25 -88 34 -31 10 -146 12 -159 3 -27 -18 11 -36 100
-49 48 -7 104 -18 125 -25 l38 -14 -47 -28 c-69 -40 -156 -45 -217 -12 -124
66 -192 108 -259 160 -40 31 -77 57 -82 57 -5 0 -9 7 -9 15 0 29 128 84 235
99 62 9 183 -3 235 -24z"/>
<path d="M3018 5523 c7 -3 16 -2 19 1 4 3 -2 6 -13 5 -11 0 -14 -3 -6 -6z"/>
<path d="M3028 5503 c7 -3 16 -2 19 1 4 3 -2 6 -13 5 -11 0 -14 -3 -6 -6z"/>
<path d="M2210 6402 c-18 -11 -36 -24 -38 -30 -6 -20 26 -25 50 -8 28 20 124
21 158 1 32 -19 50 -19 50 0 0 8 -18 24 -40 35 -51 26 -133 27 -180 2z"/>
<path d="M5885 6381 c-71 -20 -211 -92 -272 -138 -33 -25 -45 -30 -49 -19 -3
8 -33 29 -67 47 -59 32 -67 33 -162 33 -74 0 -121 -6 -180 -23 -126 -37 -153
-54 -237 -159 -6 -8 -8 -33 -4 -61 l6 -48 -30 5 c-23 3 -36 -3 -61 -27 -29
-30 -31 -35 -25 -81 4 -28 16 -71 27 -97 12 -27 56 -147 99 -268 169 -473 162
-457 179 -413 30 79 190 129 741 234 161 30 302 59 415 84 50 11 99 22 110 25
19 4 20 12 19 242 -1 211 -9 353 -30 546 -7 60 -12 65 -59 47 -20 -8 -27 -7
-31 5 -4 8 -11 15 -16 15 -5 0 -22 8 -36 19 -71 50 -224 65 -337 32z m161 -12
c3 -6 9 -49 13 -96 6 -70 4 -81 -6 -67 -13 18 -17 35 -13 67 1 10 -6 29 -14
43 -19 28 -75 34 -99 10 -11 -12 -15 -11 -26 6 -7 11 -10 22 -8 24 3 4 90 18
134 23 6 0 15 -4 19 -10z m121 -24 c28 -15 57 -33 65 -42 8 -10 17 -68 24
-147 11 -131 40 -418 49 -489 l4 -37 -42 22 c-32 17 -58 22 -112 22 -84 0
-133 -16 -316 -100 l-137 -62 -12 71 c-6 40 -15 88 -20 107 -5 19 -18 98 -30
175 -12 77 -26 156 -31 176 -5 21 -11 62 -14 92 -4 54 -3 57 30 84 31 26 211
123 227 123 13 0 31 -45 54 -132 l22 -87 -87 -27 c-93 -29 -117 -42 -103 -56
6 -6 22 -4 40 6 42 22 149 46 241 54 l76 7 -3 60 c-1 33 -5 93 -8 133 -7 85
-1 88 83 47z m182 -205 c12 -150 17 -372 12 -526 -3 -96 -5 -102 -27 -113 -23
-10 -35 1 -14 14 6 3 10 16 10 29 0 12 4 26 9 32 6 5 5 66 -4 163 -8 85 -12
180 -8 211 3 32 2 101 -2 155 -5 75 -11 101 -26 116 -10 10 -19 25 -19 32 0
16 42 38 51 28 4 -3 12 -67 18 -141z m-870 110 c41 -21 78 -58 80 -80 0 -8 25
-157 55 -330 31 -173 55 -323 56 -332 0 -16 -11 -18 -97 -18 -169 0 -309 -45
-385 -121 -59 -60 -48 -77 -117 186 -18 66 -47 176 -66 245 -71 263 -71 263
-50 306 44 97 127 140 320 168 55 8 169 -5 204 -24z m481 -54 c0 -3 -4 -8 -10
-11 -5 -3 -10 -1 -10 4 0 6 5 11 10 11 6 0 10 -2 10 -4z m80 -27 c12 -16 21
-32 19 -33 -6 -5 -109 -14 -109 -9 0 8 55 73 62 73 4 0 16 -14 28 -31z m257
-46 c-3 -10 -5 -4 -5 12 0 17 2 24 5 18 2 -7 2 -21 0 -30z m10 -120 c-2 -16
-4 -5 -4 22 0 28 2 40 4 28 2 -13 2 -35 0 -50z m-1329 -213 c16 -58 53 -197
82 -310 35 -134 60 -213 73 -227 l20 -23 -23 -25 c-13 -14 -26 -25 -29 -25 -7
0 -41 101 -41 121 0 11 2 11 10 -1 8 -12 10 -12 10 5 0 30 -103 423 -119 453
-5 9 -14 44 -21 77 -13 63 -24 91 -47 113 -17 18 -23 12 -33 -30 l-7 -33 -8
38 c-9 46 4 65 48 69 31 3 32 1 44 -47 7 -27 25 -97 41 -155z m1273 -162 c42
-23 50 -36 42 -66 -7 -30 -23 -34 -193 -48 -85 -6 -168 -15 -185 -19 l-30 -6
27 16 c43 24 136 44 222 47 48 2 81 7 83 14 6 19 -43 25 -129 14 -131 -15
-259 -67 -315 -127 -30 -32 -53 -30 -53 5 0 29 40 63 90 77 14 4 72 28 130 53
133 57 143 60 214 61 42 1 69 -5 97 -21z m-121 -170 c-52 -9 -119 -17 -147
-17 -29 -1 -53 -5 -53 -9 0 -4 -12 -9 -26 -10 -14 -1 -31 -5 -37 -9 -21 -13
-137 -40 -137 -31 0 11 107 64 160 78 47 13 294 29 320 21 8 -3 -28 -13 -80
-23z m-471 6 c21 -5 31 -12 31 -25 0 -18 -9 -19 -122 -19 -68 0 -150 -6 -184
-13 -73 -15 -154 -61 -154 -86 0 -17 -37 -41 -65 -41 -15 0 7 30 62 86 67 67
310 122 432 98z m-219 -81 c0 -9 -152 -54 -159 -47 -5 4 40 22 99 39 56 16 60
17 60 8z m257 -9 c2 -6 -48 -18 -114 -28 -121 -19 -314 -65 -351 -85 -25 -13
-39 -14 -26 -2 26 26 210 84 334 106 142 24 152 25 157 9z"/>
<path d="M5816 6209 c-52 -12 -136 -59 -136 -76 0 -17 -1 -18 65 17 32 17 75
33 96 36 23 4 39 12 39 20 0 16 -8 16 -64 3z"/>
<path d="M5832 5969 c-34 -17 -62 -34 -62 -38 0 -20 16 -18 59 7 41 24 56 27
136 27 50 0 105 -4 123 -9 47 -12 41 8 -8 28 -24 10 -70 16 -114 16 -61 0 -82
-5 -134 -31z"/>
<path d="M5950 5893 c-59 -10 -131 -35 -128 -44 4 -13 6 -13 76 2 31 6 79 14
106 18 64 8 75 32 14 30 -23 -1 -54 -4 -68 -6z"/>
<path d="M6115 5840 c-16 -4 -82 -20 -145 -35 -110 -26 -140 -38 -128 -50 12
-12 358 72 358 87 0 10 -44 9 -85 -2z"/>
<path d="M5986 5736 c-59 -7 -91 -16 -94 -25 -4 -11 6 -12 49 -8 30 4 87 9
127 13 51 5 72 11 72 20 0 16 -24 16 -154 0z"/>
<path d="M5254 6155 c-119 -21 -215 -58 -197 -76 5 -5 43 3 95 21 58 20 115
32 177 37 67 4 91 10 91 19 0 18 -68 17 -166 -1z"/>
<path d="M5200 6066 c-50 -14 -106 -41 -115 -55 -8 -15 14 -24 29 -12 25 21
102 43 175 49 46 4 76 12 79 20 5 16 -106 15 -168 -2z"/>
<path d="M5375 6009 c-117 -17 -259 -58 -278 -81 -12 -15 -15 -24 -7 -32 7 -7
14 -5 22 7 21 27 75 44 221 68 87 14 136 26 134 33 -5 15 -21 15 -92 5z"/>
<path d="M5283 5860 c-102 -28 -166 -53 -171 -68 -5 -17 19 -15 72 8 55 23
180 50 236 50 29 0 40 4 40 15 0 21 -86 19 -177 -5z"/>
<path d="M5253 5763 c-71 -17 -103 -29 -103 -39 0 -18 -2 -18 115 12 107 27
114 30 99 43 -5 5 -52 -2 -111 -16z"/>
<path d="M5231 5690 c-72 -11 -91 -30 -29 -30 77 0 138 12 138 26 0 15 -23 16
-109 4z"/>
<path d="M5263 5607 c-18 -7 -38 -18 -44 -24 -21 -21 -1 -27 34 -11 17 8 47
19 65 22 17 4 32 12 32 17 0 12 -48 10 -87 -4z"/>
<path d="M3715 6217 c-44 -15 -70 -28 -70 -37 0 -18 21 -17 95 5 55 16 203 16
273 -1 21 -5 27 -3 27 9 0 24 -90 47 -179 46 -50 0 -100 -8 -146 -22z"/>
<path d="M10479 5842 c-9 -4 -40 -38 -70 -77 -29 -38 -71 -93 -93 -121 -23
-28 -58 -73 -78 -100 -21 -27 -66 -85 -101 -130 -90 -115 -152 -213 -193 -302
-19 -42 -44 -86 -54 -98 -26 -27 -38 -92 -46 -246 -5 -92 -4 -128 4 -128 19 0
168 76 279 142 108 65 148 104 294 294 25 32 123 155 217 271 132 163 172 219
172 241 0 43 -77 151 -140 195 -65 45 -157 74 -191 59z m88 -50 c8 -5 -24 -48
-95 -128 -59 -66 -129 -147 -157 -179 -27 -32 -78 -88 -112 -125 -92 -97 -162
-188 -179 -231 -15 -35 -44 -61 -44 -38 0 29 122 221 210 329 20 25 58 72 84
105 26 33 52 67 59 75 7 8 36 47 66 85 30 39 66 80 80 92 26 23 65 29 88 15z
m103 -57 c0 -1 -48 -49 -106 -106 -58 -57 -154 -158 -212 -224 -58 -66 -111
-125 -116 -131 -6 -6 -47 -54 -90 -107 -76 -92 -100 -110 -89 -67 7 25 132
176 398 480 185 211 164 191 191 173 13 -8 24 -16 24 -18z m48 -48 c9 -10 0
-25 -39 -63 -50 -48 -90 -97 -266 -319 -74 -94 -239 -301 -250 -314 -2 -3 -16
9 -32 25 l-29 30 134 159 c135 161 449 495 464 495 4 0 12 -6 18 -13z m51
-115 c-8 -11 -79 -100 -159 -198 -150 -184 -262 -324 -308 -383 -15 -19 -39
-48 -53 -65 l-26 -30 -17 27 c-18 26 -18 27 31 88 26 34 59 76 73 94 14 18 61
78 105 133 44 55 116 146 160 203 44 57 99 124 123 148 l44 44 20 -21 c19 -18
20 -23 7 -40z m-733 -547 c14 -13 30 -22 34 -20 9 6 120 -115 120 -130 0 -11
-180 -125 -197 -125 -5 0 -18 9 -28 20 -10 11 -32 25 -49 31 l-32 11 7 57 c4
31 8 66 8 78 1 26 71 103 94 103 9 0 28 -11 43 -25z m-96 -300 c-7 -8 -17 -15
-22 -15 -6 0 -5 7 2 15 7 8 17 15 22 15 6 0 5 -7 -2 -15z"/>
<path d="M276 5533 c-76 -16 -166 -51 -233 -89 -33 -19 -43 -31 -43 -50 l0
-25 28 19 c105 75 300 127 447 119 116 -6 187 -33 241 -89 43 -46 98 -118 93
-121 -2 -2 -20 -10 -40 -19 -20 -9 -53 -31 -73 -48 -20 -18 -36 -27 -36 -21 0
6 -19 11 -46 11 -61 0 -104 -40 -104 -97 0 -42 23 -83 46 -83 10 0 14 -6 10
-17 -15 -53 -25 -105 -31 -160 l-7 -63 -43 0 c-56 0 -81 -26 -149 -155 -59
-114 -76 -127 -76 -62 0 59 -37 177 -55 177 -8 0 -31 -12 -52 -26 -34 -23 -44
-25 -95 -19 -54 6 -58 5 -58 -13 0 -30 103 -41 155 -16 42 20 48 16 66 -51 18
-64 6 -115 -35 -151 -58 -50 -44 -69 28 -39 55 23 113 90 156 180 48 100 78
132 129 137 l39 3 5 -46 c17 -138 120 -280 251 -345 87 -42 196 -55 294 -34
l59 12 39 -37 c81 -77 232 -122 324 -98 47 12 51 38 7 52 -18 6 -48 26 -66 43
-27 27 -32 37 -27 62 9 44 32 74 69 90 48 20 118 87 154 147 84 140 81 307 -7
485 -66 135 -188 227 -335 255 -87 16 -271 5 -382 -23 -77 -20 -93 -22 -93
-10 0 17 -35 77 -64 111 -35 40 -122 90 -183 106 -72 19 -216 18 -307 -2z
m1053 -228 c120 -29 221 -106 274 -212 75 -146 87 -303 34 -418 -34 -73 -74
-115 -152 -162 -82 -49 -104 -71 -111 -110 -8 -44 10 -87 55 -125 l36 -30 -60
6 c-68 8 -123 31 -178 77 -33 27 -37 35 -32 60 4 16 3 29 -1 29 -4 0 -37 -12
-73 -26 -57 -23 -76 -26 -151 -22 -109 5 -181 38 -261 117 -105 106 -150 247
-129 404 27 193 109 318 239 366 151 55 383 76 510 46z m-709 -172 c-17 -26
-30 -53 -30 -60 0 -16 -12 -17 -28 -1 -17 17 -15 68 5 90 9 10 30 18 49 18
l34 0 -30 -47z"/>
<path d="M1404 5000 c-30 -12 -68 -91 -60 -123 12 -48 39 -69 94 -75 47 -4 54
-2 82 26 53 54 36 148 -32 171 -36 13 -55 13 -84 1z m84 -46 c42 -29 25 -102
-29 -119 -32 -10 -74 25 -74 61 0 26 4 29 30 29 25 0 30 4 28 23 -3 26 13 28
45 6z"/>
<path d="M1092 4887 c-16 -17 -22 -36 -22 -66 0 -37 5 -49 36 -77 29 -28 43
-34 81 -34 38 0 50 5 79 34 45 45 47 95 5 137 -26 26 -36 29 -93 29 -54 0 -68
-4 -86 -23z m154 -34 c37 -38 -1 -103 -60 -103 -26 0 -41 7 -60 31 -29 34 -31
42 -16 69 8 15 21 18 66 18 34 0 61 -6 70 -15z"/>
<path d="M818 4870 c-9 -6 -24 -30 -34 -55 -14 -38 -15 -52 -5 -85 19 -65 90
-102 154 -81 102 34 112 147 17 185 -22 9 -49 16 -61 16 -11 0 -22 7 -25 15
-7 17 -22 19 -46 5z m130 -77 c21 -18 26 -32 23 -65 -2 -38 -96 -55 -131 -23
-22 20 -33 59 -25 86 9 26 103 27 133 2z"/>
<path d="M284 5161 c-31 -14 -64 -60 -64 -90 0 -38 24 -68 66 -81 39 -13 130
-8 161 9 43 22 45 87 4 133 -25 28 -35 32 -87 35 -32 1 -69 -1 -80 -6z m136
-51 c40 -40 17 -97 -34 -84 -17 4 -26 2 -26 -6 0 -8 -9 -10 -27 -5 -42 10 -73
33 -73 55 0 53 118 82 160 40z"/>
<path d="M17 5139 c-9 -5 -17 -21 -17 -34 0 -24 0 -24 30 -7 27 15 32 16 57 2
22 -12 29 -24 31 -54 2 -20 -2 -44 -9 -52 -15 -19 -59 -18 -88 2 -22 16 -22
16 -19 -12 2 -24 10 -30 43 -40 52 -15 86 1 109 51 21 43 14 84 -17 112 -45
42 -85 52 -120 32z"/>
<path d="M5080 4508 c-83 -19 -168 -96 -207 -188 -49 -112 -68 -254 -94 -682
-12 -208 -3 -389 25 -528 34 -162 147 -312 261 -346 69 -19 179 -15 238 10
l37 15 0 -45 c0 -34 6 -51 25 -69 32 -33 87 -34 119 -2 21 21 23 35 30 175 4
97 14 184 27 239 13 54 19 110 17 147 l-3 61 76 0 c55 1 84 6 103 18 l26 17 0
-222 c1 -254 7 -298 45 -338 43 -45 99 -55 224 -41 58 7 174 16 257 21 84 4
161 13 172 19 53 28 43 133 -14 147 -28 7 -434 -12 -488 -23 l-29 -6 7 724 c4
398 7 740 7 759 0 49 -41 84 -90 76 -47 -7 -62 -25 -72 -83 -5 -26 -11 -247
-15 -490 -4 -244 -9 -443 -11 -443 -2 0 -15 7 -28 16 -60 40 -540 1 -592 -49
-29 -26 -30 -75 -2 -111 23 -30 64 -34 163 -15 32 6 60 8 63 6 2 -3 1 -62 -3
-131 l-7 -126 -39 -40 c-122 -121 -281 -68 -332 111 -38 134 -38 367 -1 919
18 257 92 366 224 330 83 -22 145 -110 158 -223 10 -90 40 -127 100 -127 46 0
73 32 73 88 -1 165 -103 343 -234 407 -59 29 -150 39 -216 23z"/>
<path d="M7220 4487 c-56 -18 -135 -104 -155 -168 -29 -97 -29 -136 -1 -248
32 -127 76 -213 162 -317 211 -256 229 -303 241 -624 6 -181 -4 -265 -37 -295
-25 -23 -97 -16 -138 14 -61 43 -88 151 -61 241 15 51 5 86 -31 105 -70 36
-120 -2 -140 -108 -31 -165 45 -333 184 -405 43 -22 64 -26 137 -27 77 0 89 3
128 28 53 35 96 103 113 176 16 71 15 384 -2 496 -15 103 -59 229 -103 297
-18 29 -69 96 -112 148 -97 116 -140 186 -165 269 -35 111 -21 224 31 251 53
29 159 -8 261 -92 34 -27 56 -38 81 -38 45 0 77 34 77 82 0 29 -8 43 -52 84
-65 61 -106 87 -192 119 -72 27 -162 32 -226 12z"/>
<path d="M7765 4455 c-22 -21 -25 -33 -25 -97 -1 -231 -23 -947 -40 -1283 -20
-379 -20 -390 -2 -414 34 -46 100 -46 134 0 17 23 21 63 36 405 l17 379 145
26 c80 14 160 29 179 34 l34 7 -6 -58 c-7 -64 -23 -642 -20 -713 2 -51 23 -78
69 -87 26 -5 38 -1 64 23 l32 29 9 349 c5 193 14 393 20 445 6 52 10 113 9
135 -3 110 -1 202 11 437 14 283 12 296 -41 318 -33 14 -72 5 -96 -22 -16 -16
-20 -48 -26 -201 -13 -301 -24 -476 -29 -481 -7 -7 -231 -53 -297 -62 l-54 -7
6 99 c3 54 8 234 12 400 l6 300 -27 32 c-34 41 -84 44 -120 7z"/>
<path d="M4582 4440 c-11 -11 -23 -35 -26 -52 -9 -52 -25 -412 -38 -816 l-12
-374 -18 64 c-10 34 -31 110 -47 168 -119 428 -172 581 -266 773 -32 65 -67
124 -79 132 -30 22 -71 18 -103 -9 l-27 -24 12 -153 c7 -85 17 -210 24 -279
16 -176 17 -918 0 -1039 -15 -107 -7 -141 34 -160 37 -16 60 -14 89 12 47 40
59 166 59 637 l1 405 31 -110 c18 -60 48 -171 68 -245 51 -187 139 -457 187
-570 43 -103 75 -140 118 -140 35 0 81 41 81 72 0 13 5 250 10 528 9 458 16
635 36 1021 l7 127 -26 26 c-32 32 -84 35 -115 6z"/>
<path d="M6515 4405 c-32 -31 -32 -75 -2 -111 19 -22 34 -28 81 -32 l57 -5 -8
-316 c-4 -174 -8 -484 -8 -689 0 -293 -3 -372 -13 -372 -16 0 -52 -59 -52 -85
0 -11 9 -34 20 -52 30 -49 69 -55 207 -32 64 11 124 24 134 30 44 23 51 84 15
126 -22 26 -29 28 -87 25 l-62 -2 7 572 c3 315 9 621 12 681 l7 107 29 0 c85
0 135 93 78 145 -23 21 -128 34 -283 34 -102 1 -109 0 -132 -24z"/>
<path d="M10135 4053 c-214 -6 -423 -31 -537 -64 -120 -35 -158 -86 -158 -214
0 -83 44 -592 60 -690 15 -95 16 -94 -27 -84 -21 5 -68 9 -104 9 -83 0 -125
-25 -153 -92 -33 -81 -2 -137 85 -148 67 -10 955 6 1104 19 434 38 649 73 700
112 29 24 34 72 9 107 -27 39 -67 52 -160 52 -71 0 -85 3 -81 14 14 35 18 345
8 505 -16 254 -42 344 -115 409 -72 63 -211 78 -631 65z m526 -52 c51 -16 100
-51 120 -86 10 -17 28 -84 41 -150 20 -107 23 -151 23 -400 0 -154 -3 -299 -8
-322 -7 -39 -5 -43 13 -43 11 0 20 5 20 10 0 6 37 10 90 10 75 0 91 -3 98 -17
11 -21 -2 -76 -21 -91 -16 -14 -420 -68 -607 -82 -245 -17 -1083 -33 -1129
-20 -45 12 -61 33 -61 79 0 61 83 91 204 74 60 -9 65 -8 84 14 l21 24 -20 152
c-38 282 -48 391 -49 537 0 177 9 200 91 242 58 30 225 62 399 78 130 12 646
5 691 -9z"/>
<path d="M10450 3934 c-8 -2 -96 -15 -195 -29 -248 -34 -499 -72 -567 -86 -46
-9 -61 -9 -73 1 -42 35 -41 20 40 -565 29 -215 29 -215 9 -215 -9 0 -14 -7
-12 -17 4 -19 6 -20 113 -3 39 6 201 15 360 20 331 10 431 17 530 34 l70 12
-2 264 c-1 225 -5 280 -23 365 -33 162 -88 226 -190 224 -25 -1 -52 -3 -60 -5z
m137 -63 c37 -28 71 -101 83 -180 5 -31 12 -172 16 -313 l6 -257 -33 -6 c-19
-3 -56 -10 -84 -16 -27 -5 -205 -14 -395 -19 -190 -5 -371 -13 -402 -18 l-57
-8 -6 50 c-3 28 -12 89 -20 136 -11 69 -60 431 -68 504 -1 10 5 22 13 26 8 5
107 22 220 40 113 17 259 40 325 52 66 11 143 23 170 28 28 5 84 8 125 7 62
-2 81 -6 107 -26z"/>
<path d="M9955 3601 c-3 -6 4 -87 15 -181 11 -95 20 -175 20 -178 0 -4 4 -13
9 -20 9 -15 96 11 266 79 133 53 175 78 198 117 16 27 17 37 8 60 -7 15 -23
35 -37 45 -36 27 -213 59 -336 60 -76 2 -109 6 -112 15 -6 14 -22 16 -31 3z
m362 -77 c101 -26 133 -65 94 -116 -21 -26 -27 -29 -240 -103 -146 -52 -150
-52 -152 15 0 19 -6 77 -13 128 -6 51 -9 95 -6 99 9 10 257 -7 317 -23z"/>
<path d="M855 3539 c-111 -23 -184 -52 -269 -110 -84 -56 -135 -114 -174 -196
-24 -52 -27 -70 -28 -175 -1 -85 2 -118 11 -122 7 -2 18 -22 25 -43 17 -51 76
-168 113 -222 36 -52 168 -186 181 -183 4 2 29 -4 55 -12 72 -22 382 -42 406
-25 6 3 28 12 50 19 185 58 365 242 410 420 9 36 18 91 20 123 2 32 6 61 9 64
3 4 0 13 -8 22 -7 9 -19 34 -26 56 -7 22 -21 57 -31 77 -26 52 -123 153 -188
197 -150 102 -380 147 -556 110z m328 -50 c20 -6 37 -12 37 -14 0 -2 -13 -13
-30 -25 l-29 -21 -53 36 c-29 20 -55 39 -58 42 -6 6 84 -6 133 -18z m-397 -43
c-24 -25 -49 -59 -56 -76 -13 -32 -14 -32 -64 -26 -28 4 -66 9 -83 12 l-33 6
43 31 c38 28 195 95 224 97 7 0 -7 -20 -31 -44z m307 -19 c9 -8 17 -17 17 -20
0 -9 -76 -47 -93 -47 -12 0 -37 83 -37 122 0 9 83 -32 113 -55z m-146 -18 c6
-35 9 -66 7 -69 -10 -10 -194 -12 -194 -2 0 35 134 148 165 138 6 -1 15 -32
22 -67z m478 -39 c29 -21 69 -58 90 -82 35 -41 95 -150 95 -174 0 -11 -241
-26 -267 -17 -6 2 -14 19 -17 37 -8 44 -81 192 -113 230 l-25 30 31 26 c17 15
31 31 31 37 0 16 111 -40 175 -87z m-251 -27 c51 -65 132 -238 116 -248 -5 -3
-60 -8 -123 -10 l-113 -5 -17 73 c-9 39 -19 91 -22 113 -6 41 -6 42 32 55 20
6 51 20 68 30 37 23 33 24 59 -8z m-488 -45 c2 -3 0 -25 -5 -49 -6 -24 -11
-88 -11 -141 0 -113 13 -102 -135 -117 -58 -6 -94 -6 -100 0 -5 6 -12 45 -13
89 -4 68 -1 86 22 137 44 94 47 96 149 90 48 -2 90 -7 93 -9z m298 -117 c9
-57 15 -105 14 -107 -2 -1 -55 -11 -118 -23 -63 -11 -128 -23 -144 -27 l-28
-7 4 109 c3 60 9 120 15 134 10 25 12 25 126 25 l115 0 16 -104z m634 -196
c-4 -64 -12 -89 -49 -163 -36 -71 -48 -86 -64 -84 -11 2 -47 8 -81 14 l-61 11
5 96 c2 53 -1 116 -6 140 -6 25 -9 49 -6 53 3 4 64 8 136 8 l131 0 -5 -75z
m-302 28 c10 -49 10 -167 0 -215 l-7 -38 -59 -2 c-144 -5 -131 -9 -146 47 -15
62 -45 217 -42 220 6 5 137 20 190 23 l57 2 7 -37z m-277 -115 c13 -68 24
-131 24 -142 2 -15 -17 -24 -98 -51 l-100 -33 -29 32 c-36 39 -107 187 -113
236 -5 36 -5 37 33 44 22 3 71 12 109 20 39 8 88 14 111 15 l41 1 22 -122z
m-359 45 c0 -34 58 -173 99 -238 23 -36 37 -65 31 -65 -6 0 -32 -20 -59 -45
l-48 -45 -41 35 c-55 48 -101 113 -155 220 -71 140 -73 131 30 142 137 16 143
15 143 -4z m610 -228 c0 -33 -96 -155 -122 -155 -17 0 -45 127 -31 141 4 4 35
10 68 12 33 2 66 4 73 5 6 1 12 0 12 -3z m200 -14 c0 -5 -27 -34 -61 -64 -61
-54 -178 -121 -234 -133 -27 -6 -24 -1 33 51 35 32 74 79 88 106 l24 49 75 0
c41 0 75 -4 75 -9z m-390 -95 c11 -65 11 -77 -3 -90 -13 -13 -21 -11 -73 20
-81 49 -129 95 -109 106 19 11 158 46 166 42 3 -2 12 -37 19 -78z m-201 -34
c25 -21 64 -49 85 -62 23 -14 34 -26 26 -28 -7 -3 -17 2 -21 11 -7 12 -22 14
-73 10 -61 -5 -166 11 -166 26 0 14 79 79 99 81 2 0 24 -17 50 -38z"/>
<path d="M8680 2346 c-97 -26 -175 -96 -167 -150 2 -17 7 -38 11 -47 7 -16 2
-19 -92 -56 -7 -3 -12 0 -10 8 2 7 -5 15 -14 17 -14 3 -18 -3 -18 -24 0 -15
-8 -33 -17 -40 -17 -12 -17 -14 -2 -26 16 -12 37 -108 24 -108 -3 0 -23 12
-44 26 -71 46 -174 28 -226 -40 -46 -61 -51 -167 -11 -244 23 -44 125 -133
193 -170 65 -34 194 -72 248 -72 108 0 210 73 280 202 38 69 40 77 40 160 0
80 -2 89 -30 130 -36 50 -92 85 -153 94 -50 7 -148 -10 -209 -36 -47 -21 -48
-20 -57 32 l-7 37 62 32 62 31 82 -17 c70 -15 90 -16 134 -5 88 21 141 83 141
165 0 99 -84 138 -220 101z m161 -45 c34 -34 38 -74 12 -111 -27 -38 -54 -59
-95 -70 -37 -11 -138 -4 -138 9 0 4 23 17 50 28 30 13 50 28 50 37 0 22 -23
20 -86 -9 -66 -30 -70 -30 -84 -4 -23 42 29 89 139 126 89 30 116 29 152 -6z
m-94 -357 c23 -13 52 -38 64 -56 31 -42 37 -129 15 -196 -20 -59 -70 -138 -97
-153 -18 -9 -18 -8 -5 23 8 18 27 72 42 121 26 86 26 89 10 131 -22 59 -37 70
-82 62 -22 -5 -41 -3 -50 5 -11 9 -24 9 -53 0 -21 -6 -52 -11 -68 -11 -16 0
-35 -6 -41 -12 -10 -10 -15 -10 -22 2 -23 36 -11 57 43 80 102 45 171 46 244
4z m-418 -24 c10 -5 21 -16 24 -24 9 -22 -56 -16 -65 7 -10 23 -45 22 -60 -3
-15 -23 -48 -27 -48 -5 0 7 8 19 18 24 22 13 108 14 131 1z m84 -54 c4 -10 1
-13 -8 -9 -8 3 -12 9 -9 14 7 12 11 11 17 -5z m64 -162 c-3 -3 -12 -4 -19 -1
-8 3 -5 6 6 6 11 1 17 -2 13 -5z m-272 -74 c10 -11 16 -20 13 -20 -3 0 -13 9
-23 20 -10 11 -16 20 -13 20 3 0 13 -9 23 -20z m135 -87 c19 -9 51 -18 70 -20
19 -3 55 -13 79 -24 24 -10 54 -19 68 -19 14 0 21 -4 18 -10 -25 -40 -260 42
-320 111 l-20 23 35 -23 c19 -12 51 -29 70 -38z m360 -28 c0 -7 -77 -45 -92
-45 -20 0 5 20 32 25 13 2 28 9 34 15 10 10 26 14 26 5z"/>
<path d="M2196 2305 c-54 -19 -91 -58 -118 -124 -21 -51 -23 -71 -23 -231 0
-163 20 -337 44 -390 4 -8 33 -28 64 -44 119 -60 250 -43 313 40 l29 38 0 230
c0 217 -1 235 -24 300 -14 41 -38 85 -60 109 -59 66 -155 97 -225 72z m154
-59 c41 -27 77 -76 100 -136 18 -48 27 -439 11 -492 -14 -47 -74 -93 -131
-103 -46 -8 -135 15 -172 45 -15 11 -29 35 -32 56 -4 19 -10 42 -13 50 -4 11
8 14 62 14 58 0 66 2 63 18 -3 14 -16 18 -70 20 l-66 3 -4 52 c-2 29 -4 53 -3
54 0 1 36 9 80 18 44 9 82 18 84 20 2 2 1 12 -3 21 -5 14 -15 16 -63 10 -32
-4 -67 -9 -80 -12 -22 -6 -23 -4 -23 60 l0 65 93 3 c74 2 92 6 92 18 0 12 -18
16 -92 18 -51 1 -93 7 -93 12 0 5 5 33 11 62 15 72 53 124 109 150 28 14 100
1 140 -26z"/>
<path d="M9820 1869 c-34 -14 -70 -49 -82 -79 -7 -18 -5 -34 8 -62 15 -34 20
-37 70 -44 36 -4 105 1 209 17 l156 23 74 -22 c85 -25 161 -68 252 -144 118
-97 139 -142 130 -283 -6 -110 -19 -143 -85 -218 -68 -76 -89 -148 -54 -180
28 -26 62 -20 116 18 206 146 241 416 86 675 -84 143 -261 268 -418 296 -90
16 -424 18 -462 3z m390 -20 c103 -14 207 -49 271 -90 74 -47 179 -165 221
-250 103 -205 81 -417 -59 -555 -40 -39 -63 -54 -83 -54 -65 0 -61 55 10 133
65 72 89 124 100 218 11 100 -1 170 -38 224 -40 58 -184 169 -283 219 -113 57
-158 62 -338 36 -188 -27 -241 -18 -241 39 0 43 42 75 108 82 98 10 245 9 332
-2z"/>
<path d="M4248 1815 c-12 -25 -25 -45 -28 -45 -4 0 -15 9 -25 20 -10 11 -26
20 -37 20 -16 0 -18 -9 -18 -72 0 -63 -2 -69 -13 -53 -20 26 -37 10 -37 -36
l0 -41 -34 21 c-36 23 -71 27 -81 11 -4 -6 -16 -10 -27 -8 -40 6 -29 -21 18
-45 l48 -24 -34 -8 c-43 -9 -90 -32 -90 -44 0 -5 25 -21 55 -36 l55 -28 -39
-18 c-35 -15 -39 -22 -46 -65 -5 -27 -9 -78 -9 -113 l-1 -64 38 -17 38 -17
-36 -22 c-41 -24 -42 -44 -1 -49 l28 -4 -25 -26 c-69 -72 -40 -150 47 -128 20
5 26 1 32 -16 12 -40 23 -47 55 -38 24 7 34 5 53 -13 l24 -22 -38 -80 c-34
-72 -80 -196 -80 -217 0 -11 57 -10 101 2 20 6 53 21 73 35 l36 24 0 -39 c0
-62 15 -90 47 -90 16 0 35 6 44 13 20 15 109 167 109 186 0 11 4 10 20 -4 14
-13 29 -16 55 -12 21 3 53 0 77 -9 49 -17 58 -11 65 45 3 22 8 41 11 41 2 0
21 -10 40 -22 l35 -22 15 23 15 22 24 -23 25 -23 18 23 c12 14 29 22 48 22 17
0 32 6 34 12 6 18 75 -39 139 -116 76 -92 89 -87 89 30 0 35 2 64 3 64 2 0 28
-8 58 -19 30 -10 80 -21 112 -25 51 -7 57 -6 57 11 -1 10 -57 78 -125 152 -69
74 -125 140 -125 147 0 7 -9 22 -21 33 -20 18 -20 21 -5 42 9 13 16 33 16 45
0 12 7 27 15 34 21 17 19 37 -5 45 -27 9 -25 22 5 29 38 10 30 34 -20 57 -48
22 -52 28 -34 46 9 9 8 18 -3 35 -12 19 -13 28 -2 53 7 17 13 35 14 42 0 22
-31 43 -65 43 -30 0 -35 4 -45 38 -15 47 -64 99 -101 107 -21 5 -29 13 -31 33
-3 24 -8 28 -52 34 -28 4 -57 3 -68 -3 -16 -8 -19 -5 -24 20 -9 43 -29 58 -49
37 -11 -11 -35 -16 -73 -16 -51 0 -60 3 -84 30 -20 23 -35 30 -62 30 -29 0
-38 5 -51 30 -18 36 -40 38 -65 8 l-17 -22 -7 22 c-11 35 -34 26 -58 -23z m57
-37 l16 -23 20 25 c19 24 20 25 34 6 8 -11 15 -24 15 -29 0 -4 20 -5 45 -2 41
7 45 5 56 -18 11 -25 29 -29 152 -30 23 0 27 -4 27 -29 0 -33 19 -44 49 -29
26 14 101 3 101 -14 0 -7 20 -23 45 -35 41 -20 95 -74 95 -95 0 -25 37 -85 53
-85 12 0 17 -8 17 -27 0 -16 4 -34 9 -42 7 -10 4 -19 -7 -27 -16 -11 -15 -14
1 -32 10 -11 32 -27 50 -35 l31 -15 -40 -17 -39 -16 35 -29 c25 -21 30 -30 18
-30 -26 0 -32 -19 -13 -40 16 -18 16 -20 -4 -37 -24 -20 -27 -41 -7 -49 19 -7
12 -62 -10 -79 -12 -8 -17 -25 -16 -49 1 -32 -1 -36 -22 -36 -13 0 -26 -7 -29
-15 -4 -8 -24 -23 -47 -35 -22 -11 -40 -25 -40 -30 0 -6 -13 -10 -30 -10 -17
0 -33 -7 -39 -17 -9 -17 -12 -16 -35 6 -28 27 -28 27 -45 -7 l-12 -23 -36 32
c-33 28 -38 30 -49 15 -6 -9 -15 -37 -19 -61 -3 -25 -7 -45 -8 -45 -2 0 -27 9
-57 19 -52 19 -55 22 -52 50 2 27 -1 31 -22 31 -14 0 -29 -7 -34 -16 -8 -14
-11 -11 -20 15 -6 17 -16 31 -23 31 -7 0 -21 8 -31 17 -14 13 -21 14 -30 5
-10 -10 -16 -8 -29 9 -14 18 -19 20 -38 9 -15 -7 -26 -8 -34 -2 -7 6 -32 16
-56 23 -24 7 -48 21 -55 31 -7 11 -23 18 -43 18 -26 0 -36 6 -48 30 -9 17 -24
30 -34 30 -10 0 -29 9 -42 19 l-24 20 39 39 38 40 -23 12 -23 13 27 19 c36 26
34 36 -9 54 -34 14 -35 16 -20 33 21 24 20 60 -3 85 -26 29 -18 92 12 100 12
3 31 12 42 20 19 14 19 15 2 34 -10 11 -32 26 -48 32 -38 16 -30 26 28 35 65
9 68 13 41 43 -21 23 -21 25 -3 18 11 -4 32 -10 48 -13 23 -5 27 -2 27 18 0
22 1 22 13 4 21 -28 31 -2 32 82 0 39 3 74 6 78 4 3 14 -6 23 -20 21 -32 39
-22 56 31 13 40 23 42 45 12z m815 -852 c0 -7 -9 -16 -21 -19 -20 -5 -20 -5
-3 14 20 23 24 23 24 5z m56 -53 c-7 -7 -26 7 -26 19 0 6 6 6 15 -2 9 -7 13
-15 11 -17z m-139 -67 c-2 -6 -12 -11 -23 -11 -12 0 -18 -7 -18 -18 2 -18 -11
-23 -21 -7 -9 14 35 59 52 53 7 -3 12 -11 10 -17z m-818 -8 c18 -18 24 -20 45
-10 23 10 25 9 31 -19 8 -37 1 -47 -22 -28 -10 8 -32 22 -49 32 -29 16 -32 16
-38 1 -4 -9 -9 -15 -12 -12 -4 5 16 58 22 58 2 0 12 -10 23 -22z m900 -82 c15
-59 14 -89 -1 -83 -8 2 -12 19 -10 45 2 22 -2 43 -7 47 -13 8 -15 35 -2 35 5
0 14 -20 20 -44z m141 24 c9 -5 19 -5 26 1 7 6 17 2 30 -12 19 -21 19 -22 -1
-16 -11 3 -37 9 -57 13 -21 3 -38 10 -38 15 0 12 21 11 40 -1z m-840 -60 c-15
-28 -20 -23 -13 13 4 18 9 25 15 19 6 -6 6 -18 -2 -32z m-209 -59 c-11 -20
-78 -51 -111 -51 -17 0 -19 3 -8 19 12 20 41 32 87 37 13 2 26 5 29 8 11 12
12 5 3 -13z m131 -61 c6 0 6 -6 -2 -15 -7 -8 -18 -15 -25 -15 -21 0 -24 23 -6
44 14 16 16 16 19 2 2 -9 8 -16 14 -16z"/>
<path d="M4338 1596 c-121 -43 -188 -101 -236 -205 -34 -72 -38 -204 -8 -261
53 -101 150 -178 312 -246 85 -37 94 -38 204 -39 106 0 119 2 167 27 67 35
127 98 161 168 24 49 27 67 27 155 0 92 -3 106 -32 167 -78 166 -235 258 -437
258 -70 0 -107 -6 -158 -24z m287 -21 c162 -43 293 -185 311 -338 16 -139 -52
-269 -171 -329 -88 -44 -173 -46 -300 -5 -170 54 -305 156 -344 261 -27 72
-26 96 1 175 26 73 95 156 162 196 90 53 229 69 341 40z"/>
<path d="M4428 1458 c-9 -29 -19 -72 -23 -94 -6 -40 -7 -42 -53 -48 -52 -7
-92 -38 -92 -72 0 -18 11 -27 57 -44 31 -12 60 -23 63 -25 4 -3 0 -38 -8 -80
-8 -41 -12 -78 -10 -81 12 -12 65 12 122 55 l62 47 69 -38 c39 -21 76 -38 83
-38 19 0 15 26 -14 81 -14 28 -23 57 -21 63 3 7 31 25 62 40 97 48 86 76 -37
96 -92 15 -95 17 -170 123 -26 37 -54 67 -61 67 -7 0 -20 -23 -29 -52z m92
-77 c43 -66 46 -69 106 -85 34 -9 72 -16 83 -16 34 0 24 -16 -18 -30 -22 -7
-50 -24 -62 -38 l-21 -25 21 -37 c29 -52 27 -55 -16 -29 -21 13 -45 27 -54 33
-13 7 -28 1 -65 -31 -27 -22 -60 -46 -73 -53 -21 -11 -23 -10 -18 3 3 9 11 34
17 57 14 52 5 64 -69 97 -67 30 -58 46 31 53 l60 5 3 71 c3 116 15 120 75 25z"/>
<path d="M2674 1840 c-33 -13 -34 -21 -12 -85 16 -50 18 -65 8 -103 -25 -101
-89 -177 -197 -233 -73 -37 -178 -49 -259 -30 -64 16 -159 84 -200 143 -38 56
-74 157 -74 210 0 35 -3 39 -53 63 -30 14 -63 25 -75 25 -26 0 -38 -18 -23
-33 6 -6 11 -49 11 -101 0 -170 47 -304 133 -383 54 -50 96 -63 225 -68 53 -2
100 -4 103 -4 4 -1 10 -65 13 -143 3 -79 9 -195 12 -259 l6 -117 -123 -8
c-110 -8 -124 -11 -127 -28 -4 -18 2 -19 153 -12 l156 7 -12 -23 c-7 -13 -13
-26 -12 -29 3 -8 -151 -4 -168 5 -8 4 -6 1 4 -7 17 -14 15 -15 -25 -11 -34 4
-38 2 -21 -5 25 -11 66 -13 165 -9 38 2 64 -1 60 -6 -3 -5 2 -6 12 -3 10 4 28
7 42 7 19 0 23 5 22 25 -1 14 -8 25 -16 25 -7 0 -10 -5 -6 -12 5 -8 2 -9 -10
-5 -10 4 -21 7 -24 7 -4 0 0 5 8 10 13 9 13 11 0 20 -8 5 -10 10 -4 10 5 0 16
-6 23 -12 10 -11 15 -10 24 3 7 9 35 20 65 24 58 8 57 9 67 -65 l6 -46 -214
-3 c-230 -2 -261 3 -277 45 -6 14 -16 24 -23 22 -22 -8 -19 -45 7 -74 l24 -29
224 -3 c122 -2 238 0 257 3 45 8 81 46 81 84 0 64 -72 110 -172 111 -39 0 -46
8 -27 27 8 8 8 28 0 75 -12 69 -14 357 -2 397 4 17 18 27 46 36 133 39 241
128 302 248 44 88 57 200 29 255 -27 52 -88 81 -132 62z m66 -52 c98 -105 -3
-345 -184 -436 -81 -41 -184 -60 -328 -61 -102 -1 -108 0 -133 25 -23 23 -27
52 -4 39 5 -4 17 -1 26 4 17 10 17 10 1 11 -10 0 -27 9 -39 21 -11 11 -27 18
-35 15 -8 -3 -13 -2 -11 2 3 4 -1 13 -9 20 -8 7 -14 10 -14 7 0 -4 -12 8 -27
27 -15 18 -32 36 -36 39 -15 11 -77 153 -77 178 0 16 -4 21 -15 17 -12 -4 -15
4 -15 39 0 25 4 45 8 45 22 0 52 -52 67 -115 49 -214 249 -359 451 -326 138
22 293 143 329 256 17 56 17 154 0 198 -10 25 20 22 45 -5z m-883 -220 c-3 -7
-5 -2 -5 12 0 14 2 19 5 13 2 -7 2 -19 0 -25z m82 -153 c14 -11 30 -19 35 -17
5 2 3 -5 -5 -14 -13 -15 -12 -16 11 -9 23 7 24 7 10 -10 -8 -11 -10 -16 -3
-12 6 4 17 -1 25 -11 7 -11 23 -22 36 -26 13 -5 21 -10 18 -13 -9 -10 -67 16
-107 48 -22 17 -46 47 -54 66 -18 42 -19 67 -3 38 7 -11 23 -29 37 -40z m447
-202 c-14 -81 -18 -221 -8 -269 19 -82 19 -148 2 -151 -12 -3 -15 9 -17 59 -4
173 -5 193 -13 167 -4 -15 -7 -86 -5 -158 1 -72 -1 -131 -5 -131 -9 0 -18 150
-23 373 l-3 147 39 0 40 0 -7 -37z m-19 -465 c-3 -7 -5 -2 -5 12 0 14 2 19 5
13 2 -7 2 -19 0 -25z"/>
<path d="M9869 1641 c-60 -11 -83 -24 -108 -60 -42 -58 -16 -141 44 -141 14 0
71 7 128 16 210 32 340 -15 407 -149 49 -99 39 -187 -31 -256 l-33 -34 28 -23
c47 -41 96 -26 162 49 70 79 89 129 89 232 0 82 -3 94 -30 140 -64 107 -173
182 -307 209 -92 19 -286 28 -349 17z m246 -31 c221 -23 358 -114 411 -272 18
-55 14 -97 -17 -168 -51 -114 -119 -181 -169 -165 -26 8 -25 17 5 45 36 33 59
119 50 184 -9 72 -35 125 -83 168 -92 83 -190 108 -345 88 -169 -22 -206 -16
-207 33 0 27 53 73 97 85 50 13 147 14 258 2z"/>
<path d="M7326 1626 c-83 -31 -132 -107 -123 -192 5 -53 5 -53 -26 -60 -47
-10 -171 -60 -261 -105 -78 -39 -80 -40 -95 -21 -31 39 -79 54 -155 50 -119
-6 -192 -59 -190 -138 l1 -40 -41 0 c-22 0 -61 -9 -85 -21 -42 -18 -47 -19
-83 -4 -84 33 -179 9 -210 -55 -34 -67 -18 -177 34 -240 l31 -36 84 22 c97 26
148 55 174 98 26 43 24 86 -7 131 -32 47 -23 57 55 63 53 4 63 1 96 -24 47
-35 144 -46 195 -21 l31 16 102 -68 c135 -91 286 -173 306 -166 13 4 16 -5 18
-53 4 -84 28 -145 74 -186 l39 -36 103 0 c123 0 164 10 202 50 36 38 46 119
21 183 -23 61 -90 123 -159 147 -113 40 -246 15 -268 -50 -6 -16 -13 -30 -16
-30 -11 0 -228 123 -287 162 -101 68 -100 66 -71 100 13 16 27 43 30 61 6 31
15 37 118 87 62 29 148 64 191 77 78 22 80 23 100 4 29 -26 81 -51 106 -51 11
0 23 -7 27 -16 16 -42 154 34 185 102 16 36 17 50 8 91 -29 128 -147 207 -254
169z m130 -51 c30 -18 49 -40 68 -77 35 -70 33 -100 -7 -145 -33 -36 -34 -36
-108 -34 -54 2 -82 8 -107 23 -90 56 -80 185 18 236 57 28 83 28 136 -3z
m-679 -331 c22 -14 31 -43 25 -81 -13 -76 -188 -132 -249 -81 -9 7 -22 28 -30
46 -11 28 -11 36 1 61 8 15 27 36 42 46 52 34 163 39 211 9z m-495 -201 c50
-34 67 -54 74 -91 5 -27 1 -37 -28 -66 -43 -43 -168 -85 -168 -56 0 6 -9 10
-20 10 -10 0 -28 10 -40 22 -27 29 -29 142 -2 175 38 48 117 51 184 6z m1212
-180 c103 -72 135 -203 62 -257 -21 -16 -45 -22 -104 -23 -42 -2 -91 -5 -107
-9 -57 -11 -112 59 -130 165 -10 62 17 118 70 143 60 28 154 20 209 -19z"/>
<path d="M7360 1472 c-15 -12 -21 -25 -17 -35 8 -21 50 -22 67 -1 11 13 10 18
-7 35 -19 20 -20 20 -43 1z"/>
<path d="M6171 974 c-44 -56 -9 -97 41 -46 l29 28 -25 23 -24 22 -21 -27z"/>
<path d="M7346 774 c-9 -8 -16 -26 -16 -39 0 -50 60 -73 93 -37 34 37 11 92
-38 92 -13 0 -31 -7 -39 -16z"/>
<path d="M9908 1397 c-73 -14 -97 -33 -98 -78 0 -46 22 -54 151 -54 117 0 118
0 148 -30 42 -39 57 -95 42 -158 -15 -66 -15 -67 14 -67 101 0 171 103 144
213 -32 136 -205 210 -401 174z m248 -52 c77 -38 108 -72 126 -138 15 -58 -4
-112 -51 -144 -19 -13 -37 -23 -40 -23 -3 0 -6 33 -6 74 0 83 -11 105 -79 160
-40 33 -38 33 -216 23 -42 -2 -45 0 -48 25 -3 22 2 28 30 36 55 17 70 20 144
21 63 1 80 -3 140 -34z"/>
<path d="M9215 1171 c-27 -10 -63 -25 -80 -34 -51 -26 -105 -95 -119 -150 l-7
-28 -27 20 c-43 31 -76 35 -116 16 -47 -23 -64 -48 -72 -107 -5 -36 -11 -48
-24 -48 -25 0 -67 -46 -81 -87 -23 -70 8 -141 79 -185 30 -19 50 -23 112 -22
46 1 90 7 114 17 21 10 42 17 46 17 5 0 6 -27 3 -60 -7 -70 6 -110 51 -159 91
-99 261 -99 443 0 78 42 106 46 168 25 122 -43 234 -26 309 47 77 74 80 146
11 259 -20 32 -35 60 -34 62 2 1 17 10 32 20 16 10 35 34 44 54 43 104 -53
228 -216 278 -92 28 -216 8 -284 -46 -32 -25 -37 -25 -37 1 0 32 -78 105 -125
118 -58 16 -133 13 -190 -8z m180 -22 c66 -18 115 -79 115 -144 0 -33 10 -32
53 8 49 47 100 69 172 75 78 6 159 -17 216 -61 57 -43 79 -76 86 -125 10 -76
-15 -122 -68 -122 -16 0 -29 -5 -29 -11 0 -6 20 -34 43 -64 24 -29 50 -74 57
-99 11 -40 10 -52 -4 -91 -18 -46 -61 -89 -105 -107 -39 -15 -138 -12 -207 6
-94 24 -113 21 -235 -41 -109 -56 -114 -58 -193 -58 -68 1 -87 5 -123 26 -110
66 -142 182 -70 257 45 47 25 56 -48 22 -114 -53 -197 -59 -276 -19 -47 23
-69 58 -69 108 0 52 40 100 88 104 42 5 45 9 31 40 -25 55 18 117 81 117 47 0
78 -23 100 -76 17 -38 39 -59 40 -36 1 4 2 41 3 83 2 65 6 81 29 111 65 85
201 127 313 97z"/>
</g>
</svg>
