<svg xmlns="http://www.w3.org/2000/svg" viewBox="0 0 800 500" fill="none">
  <defs>
    <linearGradient id="side-bg" x1="0" y1="0" x2="0" y2="500" gradientUnits="userSpaceOnUse">
      <stop offset="0%" stop-color="#7c3aed"/>
      <stop offset="100%" stop-color="#4f46e5"/>
    </linearGradient>
  </defs>
  <!-- Window frame -->
  <rect width="800" height="500" rx="12" fill="#f8fafc" stroke="#e2e8f0" stroke-width="2"/>
  <!-- Title bar -->
  <rect width="800" height="36" rx="12" fill="#f1f5f9"/>
  <rect y="12" width="800" height="24" fill="#f1f5f9"/>
  <circle cx="20" cy="18" r="6" fill="#ef4444"/>
  <circle cx="40" cy="18" r="6" fill="#f59e0b"/>
  <circle cx="60" cy="18" r="6" fill="#22c55e"/>
  <!-- Sidebar -->
  <rect y="36" width="200" height="464" fill="url(#side-bg)"/>
  <rect x="166" y="449" width="34" height="51" fill="url(#side-bg)"/>
  <text x="24" y="72" font-family="Arial,sans-serif" font-size="16" fill="white" font-weight="bold">DHVLingoo</text>
  <!-- breadcrumb -->
  <text x="224" y="64" font-family="Arial,sans-serif" font-size="11" fill="#94a3b8">IELTS Writing → Lesson 3</text>
  <!-- Lesson header -->
  <text x="224" y="96" font-family="Arial,sans-serif" font-size="20" fill="#1e293b" font-weight="bold">Task 2: Opinion Essay</text>
  <rect x="224" y="106" width="80" height="22" rx="11" fill="#ddd6fe"/>
  <text x="240" y="121" font-family="Arial,sans-serif" font-size="11" fill="#7c3aed" font-weight="600">Writing</text>
  <rect x="312" y="106" width="100" height="22" rx="11" fill="#ccfbf1"/>
  <text x="324" y="121" font-family="Arial,sans-serif" font-size="11" fill="#0d9488" font-weight="600">Intermediate</text>
  <!-- Progress bar -->
  <rect x="224" y="140" width="558" height="8" rx="4" fill="#e2e8f0"/>
  <rect x="224" y="140" width="340" height="8" rx="4" fill="#7c3aed"/>
  <text x="572" y="138" font-family="Arial,sans-serif" font-size="11" fill="#7c3aed" font-weight="bold">60%</text>
  <!-- Content area -->
  <rect x="224" y="164" width="380" height="320" rx="10" fill="white" stroke="#e2e8f0" stroke-width="1"/>
  <text x="244" y="194" font-family="Arial,sans-serif" font-size="14" fill="#1e293b" font-weight="bold">Introduction Structure</text>
  <!-- Lesson content blocks -->
  <rect x="244" y="208" width="340" height="4" rx="2" fill="#e2e8f0"/>
  <rect x="244" y="220" width="300" height="4" rx="2" fill="#e2e8f0"/>
  <rect x="244" y="232" width="320" height="4" rx="2" fill="#e2e8f0"/>
  <rect x="244" y="252" width="340" height="56" rx="8" fill="#f0fdf4" stroke="#bbf7d0" stroke-width="1"/>
  <text x="264" y="272" font-family="Arial,sans-serif" font-size="11" fill="#166534" font-weight="bold">💡 Key Tip</text>
  <text x="264" y="290" font-family="Arial,sans-serif" font-size="10" fill="#15803d">Start with a paraphrase of the question...</text>
  <!-- Example answer block -->
  <rect x="244" y="320" width="340" height="80" rx="8" fill="#eff6ff" stroke="#bfdbfe" stroke-width="1"/>
  <text x="264" y="344" font-family="Arial,sans-serif" font-size="11" fill="#1e40af" font-weight="bold">📝 Example</text>
  <rect x="264" y="354" width="280" height="4" rx="2" fill="#93c5fd" opacity="0.5"/>
  <rect x="264" y="366" width="260" height="4" rx="2" fill="#93c5fd" opacity="0.4"/>
  <rect x="264" y="378" width="240" height="4" rx="2" fill="#93c5fd" opacity="0.3"/>
  <!-- Navigation buttons -->
  <rect x="244" y="418" width="100" height="36" rx="8" fill="#f1f5f9" stroke="#e2e8f0" stroke-width="1"/>
  <text x="270" y="441" font-family="Arial,sans-serif" font-size="12" fill="#64748b">← Previous</text>
  <rect x="484" y="418" width="100" height="36" rx="8" fill="#7c3aed"/>
  <text x="518" y="441" font-family="Arial,sans-serif" font-size="12" fill="white">Next →</text>
  <!-- Right panel — vocab helper -->
  <rect x="620" y="164" width="162" height="320" rx="10" fill="white" stroke="#e2e8f0" stroke-width="1"/>
  <text x="636" y="194" font-family="Arial,sans-serif" font-size="13" fill="#1e293b" font-weight="bold">Vocabulary</text>
  <!-- Vocab cards -->
  <rect x="636" y="210" width="130" height="52" rx="6" fill="#faf5ff"/>
  <text x="646" y="232" font-family="Arial,sans-serif" font-size="11" fill="#7c3aed" font-weight="bold">Paraphrase</text>
  <text x="646" y="248" font-family="Arial,sans-serif" font-size="9" fill="#a78bfa">to express the same...</text>
  <rect x="636" y="272" width="130" height="52" rx="6" fill="#faf5ff"/>
  <text x="646" y="294" font-family="Arial,sans-serif" font-size="11" fill="#7c3aed" font-weight="bold">Assertion</text>
  <text x="646" y="310" font-family="Arial,sans-serif" font-size="9" fill="#a78bfa">a confident statement...</text>
  <rect x="636" y="334" width="130" height="52" rx="6" fill="#faf5ff"/>
  <text x="646" y="356" font-family="Arial,sans-serif" font-size="11" fill="#7c3aed" font-weight="bold">Elaborate</text>
  <text x="646" y="372" font-family="Arial,sans-serif" font-size="9" fill="#a78bfa">to explain in detail...</text>
  <rect x="636" y="400" width="130" height="36" rx="6" fill="#7c3aed"/>
  <text x="668" y="422" font-family="Arial,sans-serif" font-size="11" fill="white" font-weight="bold">Add to Deck</text>
</svg>
